<svg xmlns="http://www.w3.org/2000/svg" width="152" height="152" viewBox="0 0 152 152"><rect width="100%" height="100%" fill="#2563eb"/><path fill="#ffffff" d="M39.69 79.82q.22 0 .39.17l1.06 1.15q-.88 1.09-2.16 1.67-1.29.58-3.09.58-1.61 0-2.89-.55-1.29-.55-2.2-1.53t-1.39-2.34q-.49-1.36-.49-2.97 0-1.63.52-2.98.52-1.36 1.47-2.34.94-.98 2.25-1.53 1.31-.54 2.9-.54 1.58 0 2.8.52 1.23.52 2.09 1.36l-.9 1.25q-.08.12-.2.21-.13.09-.35.09-.15 0-.31-.09-.16-.08-.35-.2-.19-.13-.44-.28t-.58-.28q-.33-.12-.76-.21-.44-.08-1.01-.08-.97 0-1.77.35-.81.34-1.39 1-.58.65-.9 1.6-.32.94-.32 2.15 0 1.22.35 2.17.34.95.93 1.6t1.39 1q.8.34 1.72.34.55 0 1-.06.44-.06.82-.19.37-.13.71-.34.33-.2.66-.5.1-.09.21-.14.11-.06.23-.06m12.79-11.05h2.7v14.46h-2.7v-6.32h-6.79v6.32h-2.7V68.77h2.7v6.22h6.79zm8.96 9h4.6l-1.76-4.81q-.13-.32-.27-.76t-.28-.95q-.13.51-.27.95-.14.45-.27.78zm3.67-9 5.68 14.46h-2.08q-.35 0-.57-.18-.22-.17-.33-.43l-1.08-2.95h-5.99l-1.08 2.95q-.08.23-.31.42t-.57.19h-2.1l5.69-14.46zm17 0h2.37v14.46H83.1q-.32 0-.54-.1-.21-.11-.41-.36l-7.55-9.64q.06.66.06 1.22v8.88h-2.37V68.77h1.41q.17 0 .3.01.12.02.22.07.09.04.18.12.09.09.2.23l7.58 9.68q-.03-.35-.05-.69t-.02-.63zm15.41 0h2.37v14.46h-1.38q-.32 0-.54-.1-.21-.11-.41-.36l-7.55-9.64q.06.66.06 1.22v8.88H87.7V68.77h1.41q.17 0 .29.01.13.02.23.07.09.04.18.12.09.09.2.23l7.58 9.68q-.03-.35-.05-.69t-.02-.63zm14.71 2.14h-6.42v4.01h5.06v2.07h-5.06v4.09h6.42v2.15h-9.12V68.77h9.12zm5.07 10.1h5.78v2.22h-8.47V68.77h2.69z"/></svg>